<?xml version="1.0" encoding="UTF-8"?>
<svg id="Layer_1" xmlns="http://www.w3.org/2000/svg" version="1.1" viewBox="0 0 252.6180489 168.266627">
  <!-- Generator: Adobe Illustrator 29.5.1, SVG Export Plug-In . SVG Version: 2.1.0 Build 141)  -->
  <defs>
    <style>
      .st0 {
        fill: #231f20;
      }
    </style>
  </defs>
  <g id="g5680">
    <path id="path3045" class="st0" d="M24.3835855,91.4385387c-4.3491082,0-7.0231402-3.491598-7.0231402-7.4519862,0-3.8731175,2.5859209-7.1587823,6.9938948-7.1587823,3.3205208,0,5.7005539,2.2003014,5.7005539,2.2003014l1.8220643-2.8165567s-2.615155-2.845768-7.6988631-2.845768c-6.1419271,0-10.725771,4.6353841-10.725771,10.6792736,0,6.1318417,4.4075991,10.8559501,10.7842619,10.8559501,5.31883,0,8.1987271-3.3744346,8.1987271-3.3744346l-1.9986954-2.7286046s-2.4385353,2.6406071-6.0530437,2.6406071"/>
    <path id="path3051" class="st0" d="M49.2153999,91.4385387c-3.8199873,0-6.8761408-3.1688648-6.8761408-7.4519862,0-4.1074898,3.0561534-7.1587823,6.8761408-7.1587823s6.8761408,3.0512924,6.8761408,7.1587823c0,4.283076-3.0561534,7.4519862-6.8761408,7.4519862M49.2153999,73.3657016c-6.1415409,0-10.7842619,4.6653678-10.7842619,10.6208509,0,6.1314782,4.642721,10.9143729,10.7842619,10.9143729,6.1419271,0,10.7846481-4.7828946,10.7846481-10.9143729,0-5.9554832-4.642721-10.6208509-10.7846481-10.6208509"/>
    <path id="path3057" class="st0" d="M80.6395551,87.037527c0,2.8165567-1.8509236,4.4010118-4.642721,4.4010118s-4.6134642-1.5844551-4.6134642-4.371437v-13.3494555h-3.7907533v13.3494555c0,4.6649589,3.3793864,7.8338236,8.4334743,7.8338236,5.024831,0,8.4042175-3.1688648,8.4042175-7.8338236v-13.3494555h-3.7907533v13.3198807Z"/>
    <path id="path3063" class="st0" d="M101.0851679,83.4873699h-3.4082571v-6.5125888h2.8795224c2.9680423,0,3.8199873,1.2321016,3.8199873,3.226924,0,2.0827291-1.2633346,3.2856648-3.2912753,3.2856648M104.7000397,85.7468664v-.0583773c2.2037995-.8802024,3.5260111-3.198485,3.5260111-5.6918995,0-2.7578159-1.3222116-4.7529564-3.4090067-5.6919449-.9104586-.4110942-1.9390574-.5870439-4.2017339-.5870439h-6.7291526v20.8310165h3.7907533v-7.7747195h3.643379l4.1436292,7.7747195h4.2313542l-4.2902312-7.7747195c-.4113668-.7338275-.7049796-1.0269406-.7049796-1.0269406"/>
    <path id="path3069" class="st0" d="M115.2977442,76.9746902h6.8465205v17.5737453h3.7907533v-17.5737453h6.8465205v-3.2572257h-17.4837716l-.0000227,3.2572257Z"/>
    <path id="path3075" class="st0" d="M150.7613126,94.5485264v-8.7140714l6.9350178-12.1169451h-4.2902312l-3.2323756,6.1318871c-.6757228,1.2912966-1.2637207,2.7877542-1.2637207,2.7877542h-.0583546c-.0297792.0297565-.5879752-1.4964576-1.2637207-2.7877542l-3.2616551-6.1318871h-4.2902085l6.9346316,12.1169451v8.7140714h3.790617Z"/>
    <path id="path3081" class="st0" d="M197.0110738,83.4873699h-3.4086432v-6.5125888h2.8799085c2.9680196,0,3.8200101,1.2321016,3.8200101,3.226924,0,2.0827291-1.2633118,3.2856648-3.2912753,3.2856648M200.6255822,85.7468664v-.0583773c2.2041857-.8802024,3.5263973-3.198485,3.5263973-5.6918995,0-2.7578159-1.3222116-4.7529564-3.4086432-5.6919449-.9108447-.4110942-1.9394435-.5870439-4.2021201-.5870439h-6.7295388v20.8310165h3.7907306v-7.7747195h3.6437424l4.1436065,7.7747195h4.2313769l-4.2902312-7.7747195c-.4113668-.7338275-.7053431-1.0269406-.7053431-1.0269406"/>
    <path id="path3087" class="st0" d="M217.5025252,91.2918459v-14.3172465h3.1146216c4.1728633,0,6.9354039,2.4938234,6.9354039,7.1292529,0,4.6941702-2.7036636,7.1879936-6.9354039,7.1879936h-3.1146216ZM231.4603312,84.1038523c0-6.5721473-4.2017112-10.3861152-10.6372738-10.3861152h-7.11124v20.8310165h7.11124c6.4355626,0,10.6372738-3.8723906,10.6372738-10.4449013"/>
    <path id="path3093" class="st0" d="M169.7820198,86.9729712c-.1247502.0651918-.2482966.1324733-.3709797.2006634l2.4735617-6.0019579h.0589452l1.7455037,4.3053366c-1.3491514.3285029-2.6675015.8264135-3.9069854,1.4960941M181.2289662,94.548799l-9.2715632-20.8310165h-.1158233l-9.2719948,20.8310165h3.8015428l.0026804-.0059513c.0026804.0019535.008927.0059513.008927.0059513.1542342-.2768946.307855-.5017721.502181-.7507274,0,0,.7846408-1.1011275,1.1447855-1.5145386.3601902-.4134112.8804522-.910186,1.3418373-1.3504462.24205-.2072053.5048841-.3884248.7565197-.5862716.2471154-.204525.5202848-.3722972.7946353-.5390246,1.0851589-.6858082,2.2780773-1.2310113,3.5340976-1.6048076l.3043569-.0810013,2.6059214,6.4269082,3.8618963-.0000909Z"/>
    <path id="path3099" class="st0" d="M236.4285794,76.2010662c.365937,0,.6049432-.2378704.6049432-.6273855,0-.3815194-.239097-.6032169-.6049432-.6032169h-.6679998v1.2306024h.6679998ZM235.4099979,74.6523189h1.0581963c.5410689,0,.9231789.3653919.9231789.9213163,0,.4691081-.2864349.7703077-.6126208.8498552v.0178539s.0318463.0396148.1036254.1744504l.6284304,1.2152471h-.3898331l-.6764951-1.3262775h-.6838093v1.3262775h-.3505818l-.0000909-3.178723ZM236.3331768,78.7832505c1.4006916,0,2.4742886-1.1045801,2.4742886-2.5422515,0-1.4295849-1.073597-2.5414792-2.4742886-2.5414792-1.3764775,0-2.4423968,1.1118943-2.4423968,2.5414792,0,1.4376714,1.0659194,2.5422515,2.4423968,2.5422515M236.3331768,73.3656562c1.5754146,0,2.832548,1.2708986,2.832548,2.8753428,0,1.6128941-1.2571788,2.8753883-2.832548,2.8753883-1.551155,0-2.8002474-1.2624941-2.8002474-2.8753883,0-1.6044442,1.2490923-2.8753428,2.8002474-2.8753428"/>
  </g>
</svg>