<?xml version="1.0" encoding="UTF-8"?>
<svg id="Layer_1" xmlns="http://www.w3.org/2000/svg" version="1.1" viewBox="0 0 252.6180489 168.266627">
  <!-- Generator: Adobe Illustrator 29.5.1, SVG Export Plug-In . SVG Version: 2.1.0 Build 141)  -->
  <defs>
    <style>
      .st0 {
        fill: #231f20;
      }
    </style>
  </defs>
  <g id="brand-lock-up">
    <g id="brand-text">
      <g>
        <path class="st0" d="M230.3007984,131.0471377l-6.9150565-7.9345783h-4.6543632v.620579c1.418478,0,1.5957844.1773064,1.5957844,1.374148v6.6490902c0,2.3936698-.4876027,2.6153061-1.6401143,2.6153061v.620579h4.2997504v-.620579c-1.374148,0-1.8174207-.3102895-1.8174207-1.6844375v-7.8016019l9.2643964,10.461238h.709239v-9.9293054c0-1.4628012.7978854-1.6401076,1.5514544-1.6401076v-.620579h-4.2997504v.620579c1.0638517,0,1.9060671.2216363,1.9060671,1.5957844v5.6738917"/>
        <path class="st0" d="M209.910255,122.8022699c-3.1915687,0-6.4717839,2.0833803-6.4717839,6.2501475,0,4.1667605,3.2802151,6.2501475,6.4717839,6.2501475s6.4717839-2.0833803,6.4717839-6.2501475c0-4.1667605-3.2802151-6.2501475-6.4717839-6.2501475M209.910255,134.7706323c-2.2163634,0-3.2358852-1.9947271-3.2358852-5.6738917s1.0195218-5.6738917,3.2358852-5.6738917,3.2358852,1.9947271,3.2358852,5.6738917-1.0195218,5.6738917-3.2358852,5.6738917Z"/>
      </g>
      <g>
        <path class="st0" d="M194.2184048,133.3964843c0,.8422154-.2659663.9308753-1.5071244.9308753v.620579h5.9398512v-.620579c-1.2411581,0-1.5071244-.0886532-1.5071244-.9308753v-9.08709c0-.4432727.2216363-.620579.620579-.620579,1.0195218,0,2.748296.9308753,3.7234878,2.7482893l.4432727-.1773064-.709239-3.5018515h-.4432727c-.3102963.1773064-.753569.3102895-1.1968417.3102895h-7.8459319c-.2216363,0-.3989427-.04433-.620579-.0886532-.2216363-.0886532-.3989427-.1329832-.5319326-.2216363h-.4432727l-.709239,3.5018515.4432727.1773064c.9752053-1.8617439,2.7039661-2.7482893,3.7234878-2.7482893.3989427,0,.620579.1773064.620579.620579v9.08709M179.945019,133.3964843c0,.8422154-.2659663.9308753-1.5071244.9308753v.620579h11.2147934l.8865454-3.4575283h-.5319326c-1.6401143,2.3936698-2.7039661,2.8369425-5.5409085,2.8369425-1.329818,0-1.5514544-.2216363-1.5514544-.8422154v-8.8211237c0-.8422154.2659663-.9308753,1.5071244-.9308753v-.620579h-5.9398512v.620579c1.2411581,0,1.5071244.0886532,1.5071244.9308753v8.7324705"/>
        <path class="st0" d="M174.8030532,133.174848l-1.9503971-3.0585788c-.4876027-.7535622-.9308753-1.0195285-1.5514544-1.0638517v-.04433c1.9060671-.1329832,3.0585788-1.1081817,3.0585788-2.5709829,0-1.5071244-1.329818-3.2802151-5.1862958-3.2802151h-5.9398512v.620579c1.2411581,0,1.5071244.0886532,1.5071244.9308753v8.7324705c0,.8422154-.2659663.9308753-1.5071244.9308753v.620579h5.9398512v-.620579c-1.2411581,0-1.5071244-.0886532-1.5071244-.9308753v-4.1667605c1.2411581,0,1.6844308.1773064,1.9947271.7535622l2.748296,4.9646527h4.0781141v-.620579c-.620579,0-.9752053-.0886532-1.6844308-1.1968349M168.7302255,128.6977979h-1.0195218v-4.9646527h.664909c2.4379998,0,3.0585788,1.4184712,3.0585788,2.4823297,0,1.8617439-1.2854881,2.4823297-2.7039661,2.4823297v-.0000068Z"/>
      </g>
      <path class="st0" d="M159.9534183,133.0861948l-5.0089759-9.6190158c-.2216363-.3546195-.3102963-.4876027-.3989427-.4876027-.1773064,0-.5319326.9308753-1.9947271,1.9060739.2216363.0886532.3546127.3102895.3546127.5319259,0,.1329832-.04433.2659663-.1773064.5762558l-3.0142488,6.2501475c-.753569,1.5957844-1.2411581,2.1277102-2.3493398,2.1277102v.620579h4.2997504v-.620579c-1.1525117,0-1.5957844-.3102895-1.5957844-.7978922,0-.2659663.1329764-.7535622.709239-1.6401076h5.4079321c.753569,1.1081817.8865454,1.7287608.8865454,1.9060739,0,.3989427-.3546127.4876027-1.5957844.4876027v.620579h6.4274539v-.620579c-1.1081817.04433-1.374148-.2216363-1.9503971-1.2411649M151.0436618,131.2244576l2.3493398-4.9646527,2.4379998,4.9646527h-4.7873396ZM144.9264771,130.9141614c-1.0195218,2.1277102-2.6153061,3.7678178-4.5657032,3.7678178-1.8174207,0-3.8121478-1.374148-3.8121478-5.6295617,0-3.900801,1.5957844-5.6295617,3.9007942-5.6295617,2.1720334,0,3.5018515,1.4628012,4.4327268,3.2358919h.4876027v-3.7234878h-.3989427c-.1773064.3102895-.5762491.4876027-.8865454.4876027-.709239,0-2.1720334-.620579-3.9007942-.620579-4.2110905,0-6.8707266,2.7926192-6.8707266,6.4717839,0,3.2802151,2.7039661,6.0285112,6.5161138,6.0285112,2.1720334,0,3.7234878-.7978922,4.2554205-.7978922.3989427,0,.709239.2659663.8865454.7978922h.3989427v-4.3883968h-.4432727"/>
      <g>
        <path class="st0" d="M108.3564808,134.9922687h10.3282548l1.2411649-3.5905114h-.4876027c-1.7287608,2.3050166-2.7926192,3.0142556-4.4770568,3.0142556h-2.9256024l7.4913056-10.9931639v-.3102895h-10.1509417l-1.1081817,3.3245451h.3989427c1.374148-1.8174207,2.7926193-2.7039661,4.3883968-2.7039661h2.7039661l-7.4469824,10.8158507v.4432727M99.1807377,133.3964843c0,.8422154-.2659663.9308753-1.5071244.9308753v.620579h5.9398512v-.620579c-1.2411649,0-1.5071244-.0886532-1.5071244-.9308753v-9.08709c0-.4432727.2216363-.620579.620579-.620579,1.0195285,0,2.7482893.9308753,3.7234878,2.7482893l.4432727-.1773064-.709239-3.5018515h-.4876027c-.3102895.1773064-.7535622.3102895-1.1968349.3102895h-7.8459251c-.2216363,0-.3989427-.04433-.620579-.0886532-.2216363-.0886532-.3989427-.1329832-.5319259-.2216363h-.4876027l-.709239,3.5018515.4432727.1773064c.9751985-1.8617439,2.7039661-2.7482893,3.7234878-2.7482893.3989427,0,.620579.1773064.620579.620579v9.08709M88.4535401,133.3964843c0,.8422154-.2659663.9308753-1.5071244.9308753v.620579h5.9398512v-.620579c-1.2411649,0-1.5071244-.0886532-1.5071244-.9308753v-8.7324705c0-.8422154.2659663-.9308753,1.5071244-.9308753v-.620579h-5.9398512v.620579c1.2411649,0,1.5071244.0886532,1.5071244.9308753v8.7324705"/>
        <path class="st0" d="M83.6218638,133.174848l-1.9503971-3.0585788c-.4876027-.7535622-.9308753-1.0195285-1.5514544-1.0638517v-.04433c1.9060739-.1329832,3.0585788-1.1081817,3.0585788-2.5709829,0-1.5071244-1.329818-3.2802151-5.186289-3.2802151h-5.9398546v.620579c1.2411649,0,1.5071278.0886532,1.5071278.9308753v8.7324705c0,.8422154-.2659629.9308753-1.5071278.9308753v.620579h5.9398546v-.620579c-1.2411649,0-1.5071278-.0886532-1.5071278-.9308753v-4.1667605c1.2411615,0,1.6844342.1773064,1.9947305.7535622l2.7482893,4.9646527h4.0781073v-.620579c-.620579,0-.9751985-.0886532-1.6844375-1.1968349M77.5490294,128.6977979h-1.0195285v-4.9646527h.664909c2.4379998,0,3.0585788,1.4184712,3.0585788,2.4823297,0,1.8617439-1.2854881,2.4823297-2.7039661,2.4823297l.0000068-.0000068ZM53.2133585,133.3964843c0,.8422154-.2659629.9308753-1.5071278.9308753v.620579h10.9488339l.930872-3.4575283h-.5319259c-1.329818,2.2163634-2.6596361,2.8369425-5.0533093,2.8369425-1.595781,0-1.8174173-.2216363-1.8174173-.709239v-4.4770568h.7978922c2.1277102,0,3.1029088.5762558,3.4575283,2.2606934h.4875993v-5.2749422h-.4875993c-.4875993,1.7730907-1.2854915,2.3936698-3.4575283,2.3936698h-.7978922v-4.0337841c0-.664909.2216363-.7535622,1.0638551-.7535622,2.6596361,0,3.9451275.7535622,5.6295617,2.6153061h.4876027l-1.1968349-3.2358919h-10.461238v.620579c1.2411649,0,1.5071278.0886532,1.5071278.9308753v8.7324705M44.7911775,133.3964843c0,.8422154-.2659629.9308753-1.5071278.9308753v.620579h5.9398546v-.620579c-1.2411632,0-1.5071278-.0886532-1.5071278-.9308753v-8.7324705c0-.8422154.2659629-.9308753,1.5071278-.9308753v-.620579h-5.9398529v.620579c1.2411632,0,1.5071278.0886532,1.5071278.9308753v3.6348346h-6.0728361v-3.6348346c0-.8422154.2659629-.9308753,1.5071278-.9308753v-.620579h-5.9398546v.620579c1.2411632,0,1.5071278.0886532,1.5071278.9308753v8.7324705c0,.8422154-.2659629.9308753-1.5071278.9308753v.620579h5.9398546v-.620579c-1.2411632,0-1.5071278-.0886532-1.5071278-.9308753v-4.2554205h6.0285078v4.2554205M24.7552528,133.3964843c0,.8422154-.2659638.9308753-1.5071272.9308753v.620579h5.939854v-.620579c-1.2411632,0-1.507127-.0886532-1.507127-.9308753v-9.08709c0-.4432727.2216363-.620579.6205816-.620579,1.0195268,0,2.7482901.9308753,3.7234904,2.7482893l.4432727-.1773064-.7092365-3.5018515h-.4876001c-.3102912.1773064-.7535639.3102895-1.1968366.3102895h-7.7572709c-.2216363,0-.3989455-.04433-.6205818-.0886532-.2216363-.0886532-.3989455-.1329832-.5319272-.2216363h-.5319272l-.7092363,3.5461815.4432727.1773064c.9751999-1.8617439,2.7039633-2.7482893,3.7234904-2.7482893.3989452,0,.6205816.1773064.6205816.620579v9.04276M123.7380415,129.8946328h3.9894541l1.6401076-2.3936698h-3.9451242l-1.6844375,2.3936698"/>
      </g>
    </g>
    <g id="brand-mark">
      <path class="st0" d="M116.585848,98.7203248c0-.3679427.919859-1.2878017,1.165151-1.2878017.122646,0,1.042505.919859,1.042505,1.2878017,0,.122646-.919859,1.1651557-1.042505,1.1651557-.245292,0-1.165151-1.042505-1.165151-1.1651557M134.5537629,98.7203248c0-.3679427.919859-1.2878017,1.165151-1.2878017.122646,0,1.0425144.919859,1.0425144,1.2878017,0,.122646-.919859,1.1651557-1.042505,1.1651557-.245292,0-1.165151-1.042505-1.165151-1.1651557h-.0000094ZM125.4778186,98.7203248c0-.3679427.919859-1.2878017,1.165151-1.2878017.122646,0,1.042505.919859,1.042505,1.2878017,0,.122646-.919859,1.1651557-1.042505,1.1651557-.1839737,0-1.165151-1.042505-1.165151-1.1651557ZM115.420697,100.5600428h4.5379675c.3679474,0,.5519117-.2452967.5519117-.5519164v-2.5756034c0-.3679427-.245292-.5519164-.5519117-.5519164-.919859,0-3.1275244.122646-4.5379675.2452967-.245292,0-.4905934.122646-.4905934.4905934v2.5756034c0,.2452967.245292.3679427.4905934.3679427ZM112.4158279,98.9656214c0-.2452967.674567-.919859.797213-.919859s.797213.6745624.797213.919859c0,.122646-.674567.919859-.797213.919859s-.797213-.797213-.797213-.919859ZM121.3077985,98.7203248c0-.2452967.674567-.919859.797213-.919859s.797213.6745624.797213.919859c0,.122646-.674567.919859-.797213.919859-.0613277,0-.797213-.797213-.797213-.919859ZM128.8506444,100.6826888c.3679474,0,.5519117-.2452967.5519117-.5519164v-2.7595771c0-.3679427-.245292-.5519164-.5519117-.5519164h-4.4153308c-.3679474,0-.5519117.2452967-.5519117.5519164v2.7595771c0,.3679427.245292.5519164.5519117.5519164h4.4153308ZM137.9265793,100.5600428c.245292,0,.490584-.122646.490584-.4905934v-2.5756034c0-.3679427-.245292-.4905934-.490584-.4905934-1.410443-.122646-3.6181084-.2452967-4.5379675-.2452967-.3679474,0-.5519117.2452967-.5519117.5519164v2.5756034c0,.3679427.245292.5519164.5519117.5519164h4.5379675v.1226507ZM140.9314484,98.9656214c0,.122646-.674567.919859-.7972037.919859-.1226554,0-.7972037-.797213-.7972037-.919859,0-.2452967.674567-.919859.7972037-.919859.1226554,0,.7972037.6745624.7972037.919859ZM131.9781501,98.7203248c0,.122646-.674567.919859-.797213.919859s-.797213-.797213-.797213-.919859c0-.2452967.674567-.919859.797213-.919859s.797213.6745624.797213.919859ZM120.1426381,44.87791h.122646c.5519117,2.2076619,3.1275244,2.4529574,3.7407638,4.967239l-.122646.1226483c-1.2878064-1.8397181-3.0048691-2.0850136-3.7407638-3.0048726-.3066197-.429268-.3066197-1.0425074,0-2.0850147ZM124.4353136,74.6200163c0,3.6181131-3.0048691,5.2125345-6.1323935,5.2125345,4.0473835-4.4153215.919859-10.7930117,4.8445871-14.9630411-.3066197,3.6794361,1.2878064,7.1748986,1.2878064,9.7505066ZM143.6910255,84.431846c4.2926755,0,6.5003409-2.2076607,6.5003409-5.5804772,0-1.1651557-.3679474-1.9623641-.3679474-1.9623641-1.165151.919859-2.5756128,1.1651557-3.3728164,1.1651557-1.7170627,0-4.0473835-1.042505-4.0473835-3.8020821,0-3.6181131,3.8020915-5.4578312,3.8020915-9.50521,0-1.1651557-.490584-1.5944214-.490584-1.5944214,1.7170627-2.3303091,2.3303021-4.5379721,2.3303021-6.2550419,0-3.2501681-1.7170627-5.3351828-1.7170627-5.3351828l1.8397181.919859c-.7972037-3.1275209-2.5756128-5.2125345-2.5756128-5.2125345,0,0,.919859.490591,1.410443.2452955-.919859-.490591-2.3303021-2.2076619-2.3303021-5.3351823s-.674567-4.8445909-6.7456329-5.887098c-.674567-1.4104505-2.3303114-2.8822248-3.1275244-3.3728164-1.4104524.6745633-3.4954624,1.5330984-4.1700295,2.0850139,0,0-1.7170721.1226478-2.4529574.1226478-1.042505,0-1.8397181-.3679436-2.3303114-.3679436-1.4104524,0-2.3303114,1.4104506-2.3303114,1.4104506,0,0-3.0048691,0-5.2125345.4905916-1.165151.2452958-1.8397181,1.1651545-2.6982494,3.1275203l-5.7031279,3.1275209c-1.042505.5519152-1.7170721.919859-1.7170721,1.8397181,0,.490591.3679474,1.2878029,1.042505,2.3303091.5519117,3.4954636,1.165151,4.04738,1.9623641,4.04738.245292,0,.674567-.1226483.674567-.1226483.245292.2452955.797213,1.1651557.919859,1.5330984-.919859.490591-2.0850101-.5519152-3.4954624-.5519152-.797213,0-2.0850101.4905922-2.0850101,1.8397169,0,.490591.245292.5519164.4905934.5519164.3679474,0,.674567-.1226483,1.5330984-.1226483,1.042505,0,1.8397181.919859,3.4954624.919859.5519117,0,.919859-.1226483,1.165151,0-.797213.5519164-1.2878064.919859-1.042505,1.7170697.3679474,1.5330984,1.7170721,3.2501681,2.4529574,3.2501681.5519117,0,1.5944261-.3679427,1.5944261-.3679427l-.674567.5519164c-4.6606228,3.9247328-3.6181084,8.3400566-3.6181084,12.7553781,0,3.3728164-.919859,5.4578312-3.6181084,5.4578312-1.7170721,0-4.1700295-1.042505-6.0097475-3.3728164-.245292.6745624-.3679474,1.7170721-.3679474,2.6982541,0,4.0473788,3.7407638,6.7456329,7.4201999,6.7456329,3.2501704,0,5.5804819-.919859,7.9107839-2.7595771,6.6229869-.122646,8.7079969-4.5379721,8.7079969-4.5379721,3.1275244,4.5379721,8.9532983,4.1700295,9.873148,4.1700295,1.9623734,2.1463377,4.9672425,2.9435508,7.1749079,2.9435508v-.0000094ZM144.1816095,59.8409488c0,4.8445918-6.2550489,5.4578312-6.2550489,10.1797723,0,1.8397181.5519117,3.1275198.245292,4.2926755,0,0,1.2878064-1.4104524,1.410443-2.4529574,0,3.6181131,1.8397181,7.7881379,6.6229775,7.7881379.674567,0,1.7170627-.122646,2.6982494-.6745624,0,0-.245292,3.3728164-4.0473835,3.3728164-4.8445871,0-9.259918-4.0473788-9.259918-11.5902247,0-1.41045.245292-3.0048738,1.0425144-4.1700271,0,0-2.3303114,1.2878017-2.5756034,5.3351828,0,0-.919859-1.41045-.919859-3.1275198-.122646-5.8257739,6.9909342-3.7407591,11.0383177-8.9532936h.0000187ZM138.723783,37.9483035c4.2926755.919859,3.7407638,3.7407603,4.5379675,5.7031255-1.8397181-2.3303097-4.2926755-3.8020839-4.2926755-3.8020839.245292-1.103831-.245292-1.9010416-.245292-1.9010416ZM112.7224382,49.538527c.245292-.1226483,1.042505-.2452955,1.042505-.2452955.245292.490591.245292,1.2878029.122646,1.9623664-1.042505,0-1.3491247-1.0425074-1.165151-1.7170709ZM115.1753956,53.0339906c-.4905934.6745624-.797213,1.5944214-2.2076654,1.5944214s-2.5756034-1.0425074-3.4954624-1.0425074c-.4905934,0-.674567.1226483-.919859.1226483s-.3679474-.1226483-.3679474-.2452967c0-.3679427.4905934-.6745624,1.165151-.6745624.674567,0,1.2878064.3679427,2.3303114.5519164,1.5330984.490591,2.4529574-.7972107,3.0048691-1.2878029.674567-.5519152,1.2878064-.6745635,1.8397181-.6745635,1.165151,0,1.9623641.5519152,1.9623641.5519152-.5519117,0-1.8397181.5519152-2.7595771,1.1651545-.3066197-.061323-.4292657-.1839713-.5519117-.061323h.0000094ZM116.463202,54.505766c-.4905934.490591-.919859.490591-1.165151.490591-.245292-.5519164,0-1.41045,0-1.41045.4905934,0,1.165151.3679427,1.165151.919859ZM109.0430021,80.0778475c5.4578265,0,5.3351805-6.2550395,5.3351805-8.3400543,0-9.3825616,2.7595771-11.7128707,9.259918-14.7177445,4.8445871-2.3303091,9.259918-3.2501681,9.259918-7.9107874,0-1.5944226-.4905934-3.3728164-2.3303114-3.3728164,0,0,.674567.6745635.674567,1.8397181,0,.490591-.122646.919859-.3679474,1.5330984,0-.490591-.122646-1.0425074-.4905934-1.5330984-.5519117.919859-.4905934,2.3303091-.797213,2.8822243,0,0-.245292.5519152-1.8397181,1.41045,0,0-.245292.2452955.5519117.2452955,0,0,1.9623641,0,2.6982494-.7972107-.5519117,1.5944226-1.2878064,2.2076619-2.3303114,2.2076619-.5519117,0-1.5330984-.1226483-2.3303114-.1226483-1.4104524,0-4.6606228.6745624-5.8871015,2.8822254-.919859,1.5330984-3.6181084,2.8822254-4.5379675,2.8822254-.797213,0-1.9623641-1.8397181-1.9623641-2.6982541,0-.919859,1.5944261-.3679427,2.8822231-1.5944214,2.0850101-2.0850147,2.8822231-2.5756058,5.0898885-2.5756058,0,0,1.2878064,0,.122646-1.1651545l-3.6181084-3.3728164c-.4905934-.490591-.797213-.6745635-1.2878064-.6745635-.245292,0-.674567.1226483-1.7170721,1.0425074-2.0850101.2452955-2.8822231.5519152-3.4954624.919859-.3679474.2452955-.5519117.490591-.797213.490591-.3679474,0-.797213-1.8397181-.797213-2.2076619,0-.919859,1.042505-1.5330984,1.042505-2.0850136,0-.3679438-.3679474-.490591-.3679474-.490591l-1.5330984.6745635s-.797213-.919859.122646-1.41045c0,0,2.3303114-1.2878029,6.7456329-3.3728164.245292,1.2878029.5519117,1.5330984,1.5944261,1.4104506l-.4905934.1226478-.245292.3679438c.3679474.1226483,1.042505,0,1.7170721-.2452955.5519117-.2452955,1.2878064-.2452955,1.4104524-.3679438.122646-.1226478.4905934-.4905916.4905934-.5519152-.245292,0-.919859.1226478-1.4104524.2452955.674567-.4905916,1.042505-.7972113,1.042505-1.0425068,0-.1226478-.122646-.2452955-.122646-.2452955-.3679474,0-.5519117.2452955-.919859.1226478-.245292-.1226478-.4905934-.3679438-.4905934-.6745635,0-.2452955.245292-.4905916,1.042505-.4905916h.5519117c0-.4905916-1.165151-.6745635-1.5944261-.6745635-.5519117,0-1.4104524.2452955-2.0850101.5519152,0,0,.122646-.919859,1.165151-1.4104506.5519117-.2452955,3.6181084-.5519155,6.5003409-.5519155,4.1700295,0,7.2975446,3.6181122,7.9107839,3.6181122.245292,0,.4905934-.2452955.122646-.4905916-1.5330984-1.0425068-2.4529574-1.8397181-2.4529574-2.8822248,0-.3679436,0-2.5756052,4.7832688-3.3728164,2.0850194,1.7170703,2.7595677,3.0048729,2.7595677,4.1700277,0,1.9623658-2.2076654,2.2076613-2.4529574,3.0048732,5.4578265.3679438,9.50521,7.5428447,9.50521,11.1609555,0,6.5003362-6.1323935,9.1372673-9.9958033,9.995801,5.5804725-4.1700271,7.6655013-8.3400566,7.6655013-11.2222797,0-4.7832665-4.2926755-7.5428436-5.3351899-8.0947599,2.4529574,2.6982529,3.0048691,5.45783,3.0048691,7.5428436,0,4.0473788-2.5756128,6.0097452-2.5756128,6.0097452.490584-.919859.5519117-1.7170697.5519117-2.4529574,0-.5519164-.1226554-1.0425074-.1226554-1.0425074-2.2076654,5.2125345-7.2975446,8.8306476-7.6654919,13.2459691-.3679474-1.0425074-.4905934-2.0850147-.4905934-3.0048738,0-3.7407591,2.3303114-6.0097452,2.3303114-6.0097452-4.5379675,3.1275198-5.5804819,6.7456329-5.5804819,9.50521s1.165151,4.8445918,1.165151,4.8445918c-.245292-1.0425074-.122646-2.7595771.122646-4.1700271.4905934,3.9247328,2.4529574,8.8306476,7.9107839,11.9581674-9.50521,0-13.4299381-11.344928-9.50521-18.5811519-6.6229869,1.7170697-7.4201999,8.5853509-7.5428459,12.5100814-.4905934-2.0850147-.5519117-3.7407591-.5519117-4.9672378,0-7.0522526,5.8871015-8.9532936,10.302423-10.91566,6.5003409-2.8822254,9.137272-5.2125345,9.137272-9.3825616,0-4.4153238-5.2125345-7.1749003-9.0759443-6.377689l1.4104524,1.41045c.245292.2452955.5519117.490591.5519117.490591,4.0473835,2.0850136,4.6606228,4.4153226,4.6606228,5.8257739,0,3.7407603-4.1700295,5.7031267-7.1748986,6.9909284-9.750502,4.1700271-11.467574,6.0097452-11.467574,12.0808157,0,4.4153238,1.2878064,11.3449257-3.3728164,11.958165.3679474.5519164,1.9623641.797213,1.9623641.797213-1.4104524,1.1651557-2.8822231,1.5330984-4.6606228,1.5330984-1.5944261,0-4.8445871-.4905934-5.8257739-3.9247328,1.2878064.3679427,2.5756034,1.1038327,4.5379675,1.1038327h.0000655ZM134.4311075,40.0333159l.3679474.2452955s2.0850101-.919859,2.0850101-2.4529574c0,0,0-.7972113-.490584-1.2878026-.245292,0-.245292.4905916-.245292.6745632,0,.4905916-.3679474.7972113-.919859.7972113-.4905934,0-1.2878064-.4905916-1.2878064-1.2878026s.3679474-1.1651548.3679474-1.4104503c0,0,0-.1226478-.122646-.1226478-1.8397181.6745632-1.9623641,1.5330984-1.9623641,2.0850139,0,.9198587.3679474,1.71707,2.2076654,2.7595768h-.0000187ZM112.0478805,44.7552617c.122646.2452955.4905934.490591.674567.490591.4905934-.490591.919859-1.0425074.919859-1.5944226-.5519117.0613242-1.5944261.3066197-1.5944261,1.1038315ZM149.7620914,83.3893409l-.3679474-.122646c-.490584.6745624-2.0850101,2.2076607-4.5379675,2.2076607l-.1226554.2452967c1.0425144,1.042505.7972037,3.3728164-.490584,3.3728164-.7972037,0-1.165151-.6745624-1.2878064-1.2878017l-.245292-.122646c-.3679474.2452967-1.2878064.919859-1.5330984,1.1651557,0,.6745624.1226554,1.5944214.245292,2.2076607h.245292c.245292-.4905934.674567-.5519164.919859-.5519164.5519117,0,1.0425144.4905934,1.0425144,1.1651557,0,1.1651557-.7972037,2.2076607-2.4529574,2.2076607-1.7170627,0-3.2501611-.797213-3.2501611-2.6982541,0-.919859.490584-1.9623641,1.7170627-2.5756034v-.2452967c-.919859-.6745624-1.7170627-1.8397181-1.9623734-2.4529574h-.245292c-.3679474.4905934-1.5330984,1.5330984-2.5756034,1.7170721v.2452967c.919859.919859,1.042505,1.8397181,1.042505,2.4529574,0,1.5330984-1.2878064,2.4529574-3.9247281,2.4529574-1.9623641,0-3.9247281-.5519164-3.9247281-2.5756034,0-1.042505.674567-1.5944214,1.5330984-1.5944214.5519117,0,1.2878064.2452967,1.7170721.919859h.245292c.4905934-.5519164.674567-.919859,1.5330984-1.5944214v-.245306c-.3679474-.2452967-.919859-.919859-1.5330984-1.7170721h-.245292c-.797213.919859-1.4104524,1.042505-2.0850101,1.042505-.4905934,0-1.165151-.2452967-1.165151-1.042505,0-1.042505,1.2878064-1.5330984,2.3303114-1.8397181v-.2452967c-1.7170721-.6745624-3.3728164-2.5756034-3.7407638-3.7407591h-.245292c-.3679474,1.1651557-1.9623641,3.0048738-3.7407638,3.7407591v.2452967c1.042505.3679427,2.3303114.797213,2.3303114,1.8397181,0,.797213-.674567,1.042505-1.165151,1.042505-.674567,0-1.2878064-.122646-2.0850101-1.042505h-.245292c-.5519117.797213-1.165151,1.5330984-1.5330984,1.7170721v.2452967c.797213.6745624,1.042505,1.042505,1.5330984,1.5944214h.245292c.4905934-.6745624,1.165151-.919859,1.7170721-.919859.797213,0,1.5330984.5519164,1.5330984,1.5944214,0,1.9623641-1.9623641,2.5756034-3.9247281,2.5756034-2.6982494,0-3.9247281-.919859-3.9247281-2.4529574,0-.5519164.122646-1.5330984,1.042505-2.4529574v-.183969c-1.042505-.2452967-2.2076654-1.2878017-2.5756034-1.7170721h-.245292c-.245292.5519164-1.042505,1.7170721-1.9623641,2.4529574v.2452967c1.2878064.5519164,1.7170721,1.5944214,1.7170721,2.5756034,0,1.8397181-1.5330984,2.6982541-3.2501704,2.6982541-1.5944261,0-2.4529574-1.042505-2.4529574-2.2076607,0-.6745624.4905934-1.1651557,1.042505-1.1651557.245292,0,.674567.122646.919859.5519164h.245292c.122646-.5519164.245292-1.5330984.245292-2.2076607-.245292-.2452967-1.165151-.919859-1.5330984-1.1651557l-.245292.122646c-.122646.5519164-.4905934,1.2878017-1.2878064,1.2878017-1.2878064,0-1.5330984-2.3303114-.4905934-3.3728164l-.122646-.2452967c-2.4529574,0-4.0473835-1.5330984-4.5379675-2.2076607l-.0613277.061323,4.8445871,11.160959s-1.042505.4905934-.797213,1.2878017c.4905934,1.5944214,1.8397181,3.7407591,1.8397181,6.2550395,0,1.042505-.122646,1.1651557-.122646,1.5944214,0,.4905934.3679474.6745624.797213.6745624h32.9309514c.490584,0,.7972037-.2452967.7972037-.6745624,0-.4905934-.1226554-.5519164-.1226554-1.5944214,0-2.5756034,1.410443-4.6606181,1.8397181-6.2550395.245292-.797213-.7972037-1.2878017-.7972037-1.2878017l4.9672425-11.1609544h-.0000187ZM126.6429696,101.7251985c-9.0759443,0-15.0856918-.122646-15.0856918-.122646l-1.2878064-4.8445918s8.2174036-1.1651557,16.3734889-1.1651557c8.0947576,0,16.3734982,1.1651557,16.3734982,1.1651557l-1.2878064,4.8445918s-6.0097475.122646-15.0856918.122646h.0000094Z"/>
    </g>
  </g>
</svg>