<?xml version="1.0" encoding="UTF-8"?>
<svg id="Layer_1" xmlns="http://www.w3.org/2000/svg" version="1.1" viewBox="0 0 252.6180489 168.266627">
  <!-- Generator: Adobe Illustrator 29.5.1, SVG Export Plug-In . SVG Version: 2.1.0 Build 141)  -->
  <defs>
    <style>
      .st0 {
        fill: #231f20;
      }
    </style>
  </defs>
  <path id="path56" class="st0" d="M223.6318518,58.4237693v22.1377995h14.4644197v-3.9295572h-10.1605617v-5.5821606h9.3207832v-3.9251109h-9.3207832v-4.7737794h9.945884v-3.9270031h-14.249742M215.8487772,74.3655574c-1.4576066,1.703293-3.5406892,2.6419904-5.8645393,2.6419904-4.2581865,0-7.4684391-3.2247297-7.4684391-7.5000321,0-4.2926092,3.2103536-7.529632,7.4684391-7.529632,2.2671107,0,4.3287356.915689,5.8040192,2.5809936l.1298716.1496752,2.9593695-2.5390045-.137433-.1537039c-2.2583227-2.5578242-5.3690071-3.9654929-8.7559139-3.9654929-6.582051,0-11.7379821,5.0333729-11.7379821,11.4571077,0,6.5149949,5.0462329,11.4277901,11.7379821,11.4277901,3.4120731,0,6.618646-1.4688549,8.7924222-4.0310302l.1260909-.1537048-2.9203071-2.5390041-.1336523.1540818M186.2578668,64.491579l3.3162711,8.1187061h-6.6312146l3.3149435-8.1187061ZM184.4711656,58.4224797l-9.241345,22.1377993h4.5544669l1.7766722-4.3349767h9.3951996l1.7766722,4.3349767h4.5544669l-9.241345-22.1377998h-3.57473M158.8050325,58.4224793v22.1377998h12.9380678v-3.9295554h-8.6348736v-18.2084319h-4.3035838M142.2171401,62.3503351h4.0072024c1.5900035,0,3.1952164,1.1521414,3.1952164,3.3512629,0,2.4376267-1.9115367,3.3236485-3.1952164,3.3236485h-4.0072024v-6.6749115ZM146.4122522,58.4227647h-8.4983064v22.1359072h4.3031942v-7.6079356h4.1951122c3.5016267,0,7.2793027-2.770511,7.2793027-7.2488551,0-4.5566472-3.7021196-7.2788338-7.2793027-7.2788338M117.8664186,58.4225431v22.1377991h14.4663101v-3.9295572h-10.1633973v-5.5821606h9.3219159v-3.9250171h-9.3219159v-4.7738736h9.9468292v-3.9270031h-14.2497492M107.3474329,58.4227304v14.6942252l-11.1431341-14.6166788-.0611551-.0777996h-3.7314345v22.1377999h4.176858v-14.9769886l11.3918527,14.8994408.0611551.0778021h3.4797867v-22.1377998h-4.1738277M83.6379884,58.4228642l-4.2802214,14.1031658-4.2944062-13.9613107-.0418656-.1413532h-3.2311583l-4.3388548,14.1012741-4.2039038-13.9575282-.04438-.1432446h-4.2250873l6.5632269,21.9940543.04438.1433674h3.3531546l4.4654832-14.1230252,4.3896346,13.979279.04438.1433674h3.3852113l6.5337171-21.8758415.0757801-.2615133h-4.1950112M44.9382922,77.0670092c-4.2398385,0-7.437048-3.2370224-7.437048-7.529632,0-4.2398394,3.2670967-7.5616914,7.437048-7.5616914,4.1698558,0,7.4389402,3.3217573,7.4389402,7.5616914,0,4.2926097-3.1972077,7.529632-7.4389402,7.529632M44.9382922,58.0490606c-6.546486,0-11.6746192,5.0455722-11.6746192,11.4883157,0,6.4238304,5.1279419,11.4571086,11.6746192,11.4571086,6.5651172,0,11.7086636-5.033372,11.7086636-11.4571077,0-6.4431218-5.1431676-11.4883157-11.7086636-11.4883157M14.5218711,58.4217981v3.9270971h5.8943345v18.210325h4.3009318v-18.2103241h5.8918755v-3.9270031H14.5217773"/>
  <path id="path58" class="st0" d="M177.9547286,92.2450084h-.5939028v1.340715h.5245514c.5081442,0,.9406599-.1816976.9406599-.7067468,0-.6339934-.5976835-.6339934-.8713085-.6339934M179.2257386,95.6164857c-.1286162,0-.2534516-.0196719-.3404512-.1255894l-1.1487431-1.5451725h-.3757618v1.670762h-.4400627v-3.71129h1.2887014c.9368648,0,1.0793195.686577,1.0793195.9737844,0,.5052582-.3959352.9544913-1.0466063,1.0338356l1.1814563,1.5387439c.0567395.0694813.0958308.125088.1689629.1649297l-.3668151-.0000036ZM177.986879,90.1087505c-1.9720568,0-3.5697227,1.6081566-3.5697227,3.5792719,0,1.9810432,1.5975649,3.5829588,3.5697227,3.5829588,1.9708303,0,3.5785107-1.6019156,3.5785107-3.5829588,0-1.9711153-1.6076804-3.5792719-3.5785107-3.5792719M177.986879,97.670441c-2.1902267,0-3.9832772-1.7900129-3.9832772-3.9824222,0-2.2026222,1.7930361-3.9787317,3.9832772-3.9787317,2.1952484,0,3.9757013,1.7761131,3.9757013,3.9787317,0,2.1924056-1.7804674,3.9824222-3.9757013,3.9824222"/>
  <path id="path76" class="st0" d="M118.2529309,109.9021011h3.6404595v-18.7257267h-3.6404595v18.7257303M168.4883017,98.8658333c-.3959208-.1645509-.7679019-.3103101-1.1095796-.4452323-1.9670496-.7723211-2.9531213-1.1585737-2.9531213-2.4819796,0-1.0338356.9835176-1.7831081,2.3339801-1.7831081,1.4311272,0,2.4575746.5107994,3.1283613,1.557467l.0945754.147783,2.6302605-1.8022137-.0895537-.1374366c-1.2823665-2.0026993-3.2935724-3.0598-5.8141347-3.0598-3.4019575,0-5.8683345,2.1569435-5.8683345,5.1304943,0,3.4207708,2.5470417,4.6595402,5.3854575,5.7229757,2.254542.8486026,3.6340236,1.4456873,3.6340236,2.9797955,0,.3714688-.1412137,2.2288166-2.9417792,2.2288166-1.9923024,0-3.5772841-.9604473-4.4611325-2.703555l-.0844454-.1645509-2.7652115,1.7322309.0617612.1355463c1.2218464,2.7306981,3.8558876,4.2945,7.2238909,4.2945,4.1358186,0,6.6047353-2.0932992,6.6047353-5.6031547,0-3.1129463-1.9153174-4.5053898-5.0096379-5.7486037M147.5847474,101.8575192h7.8858752v-3.3216644h-7.8858752v-4.0350021h8.4141351v-3.3238361h-12.0528918v18.7257303h12.2363571v-3.3217582h-8.5970376v-4.7230907M126.285395,94.4997199h4.9846665v15.4034959h3.6383743v-15.4034996h4.9845799v-3.3236485h-13.6076207v3.3236485M118.253407,109.9022707h3.6404595v-18.7257303h-3.6404595v18.7257303M108.844773,102.3470088c0,2.9587995-1.373623,4.5245892-3.9693665,4.5245892-2.6150367,0-3.9971734-1.5657896-3.9971734-4.5245892v-11.1696171h-3.6383743v11.5119586c0,4.6279525,2.9247515,7.5024907,7.6355477,7.5024907,4.6933934,0,7.6098259-2.8745381,7.6098259-7.5024907v-11.5119586h-3.6404595v11.1696171M88.0196034,98.8657106c-.397068-.1645509-.7684069-.3103101-1.1102506-.4452323-1.966761-.7723211-2.9528399-1.1585737-2.9528399-2.4819796,0-1.0338356.9836186-1.7831081,2.3342615-1.7831081,1.4309324,0,2.4562542.5107994,3.1257134,1.557467l.0969636.147783,2.6297915-1.8022137-.0886374-.1374366c-1.2835931-2.0026993-3.2947124-3.0598-5.8165013-3.0598-3.3995909,0-5.8667183,2.1569435-5.8667183,5.1304943,0,3.4207708,2.5469479,4.6595402,5.3854575,5.7229757,2.2540658.8486026,3.6341174,1.4456873,3.6341174,2.9797955,0,.3714688-.1413508,2.2288166-2.9414906,2.2288166-1.9943803,0-3.5773779-.9604473-4.4635928-2.703555l-.0822087-.1645509-2.7647425,1.7322309.0610252.1355463c1.2221205,2.7306981,3.8557938,4.2945,7.2238909,4.2945,4.1363813,0,6.6055001-2.0932992,6.6055001-5.6031547,0-3.1129463-1.9159812-4.5053898-5.0096379-5.7486037"/>
</svg>