<?xml version="1.0" encoding="UTF-8"?>
<svg id="Layer_1" xmlns="http://www.w3.org/2000/svg" version="1.1" viewBox="41.98 68.25 463.24 479.65">
  <defs>
    <style>
      .st0 {
        fill: none;
        stroke: #000;
        stroke-linecap: round;
        stroke-linejoin: round;
        stroke-width: 12px;
      }
    </style>
  </defs>
  <path class="st0" d="M446.9039917,235.6464844l.0960083.0718994M407.0880127,288.6784668c13.1279907-17.7041016,26.071991-33.3360596,26.071991-33.3360596-10.8399963-7.6400146-13.4240112-22.6240234-5.7839966-33.4639893M436.1119995,190.3984375l54.2640076,38.2559814s-29.256012,30.2719727-68.1520081,78.7840576M215.1360016,153.5904541l-.1119995.0159912M226.8960114,218.8543701c-3.7840118-21.7199707-8.3280029-41.4959717-8.3280029-41.4959717,13.1199951-1.9599609,22.1679993-14.18396,20.2079926-27.2960205M245.1119995,118.0063477l-65.6719971,9.8081055s12.5440063,40.1918945,25.5039978,101M302.2080078,121.1984863l.1199951.0319824M391.3200073,143.0063477l.1119995.0321045M373.632019,206.918457c5.7519836-21.2800293,12.0959778-40.552002,12.0959778-40.552002-12.8880005-3.1600342-20.7680054-16.1600342-17.6159973-29.0400391l-42.5759888-10.4160156c-3.1520081,12.8800049-16.1520081,20.7680664-29.0320129,17.6159668,0,0-3.5759888,26.1920166-6.1839905,41.3040771M352.6080017,247.2384033c-.8639832-17.7280273-10.4159851-32.487915-24.9519958-36.0479736-12.7520142-3.1199951-26.0800171,3.1760254-35.2000122,15.1040039M260.6959839,219.3903809c12.7920227-72.9439697,16.9760132-135.8719482,16.9760132-135.8719482l151.5599976,37.0959473s-27.5599976,66.2480469-51.8399963,157.8720703M380.8560181,371.2064209c7.2559814-3.1040039,18.3759766-10.4240112,20.4559937-26.4799805.0319824-.223999.0559998-.447998.0799866-.6640625,1.8640137-16.487915-10.5679932-31.1920166-27.0319824-33.2319336l-31.4560242-3.8320312M261.9519958,460.5664062l.8160095.3200073c-11.3439941-4.8239746-18.8639984-17.4160156-15.9279938-29.3839722.3679962-1.4880371.8559875-3.0240479,1.4879913-4.6160278,2.0800018-5.2399902,5.6399994-8.776001,9.3840027-11.1680298,6.367981-4.0559692,14.2399902-4.9839478,21.5679932-3.1759644l89.3439941,22.0559692s11.8320007,18.6640015,3.7120056,36.1520386c-10.2479858,22.0719604-33.6239929,20.407959-33.6239929,20.407959M56.8240013,337.326416l47.368,3.1519775c20.447998,1.3599854,34.7200012-6.0159912,49.423996-20.2879639l56.1120148-54.5119629c13.8079987-13.4160156,33.3839874-19.2880859,52.2239838-15.2960205,16.8640137,3.5759277,58.0320129,17.2479248,58.0320129,17.2479248,16.6480103,4.8081055,26.7519836,21.6560059,23.1600037,38.6000977l-15.3359985,72.2159424c-1.6880188,7.7280273-10.184021,11.8720093-17.2640076,8.3519897-10.4160156-5.1919556-23.4400024-14.9039917-27.8000183-32.0800171-4.6479797-18.2799072-5.1600037-36.8719482-5.1600037-36.8719482l-17.7919922-3.8720703M368.6239929,434.5983887s24.7360229-4.5359497,28.0160217-29.8239746c3.0319824-23.3280029-15.3440247-33.8079834-15.3440247-33.8079834l-50.4719849-6.2640381M285.5759888,362.6464233c-11.1199951.5839844-20.8399963,8.3359985-23.3039856,19.3759766-.0480042.184021-.0880127.3760376-.1279907.5679932-1.2000122,5.7920532-.7920227,10.632019.3359985,14.5599976,2.1359863,7.4160156,9.3039856,13.5440063,16.7999878,15.3920288M338.7120056,491.1583862l-75.9440002-30.2719727c-9.0879974-3.8400269-19.9120026-1.7279663-26.1999969,5.8800049-1.3919983,1.6879883-2.6800079,3.6480103-3.7600098,5.9279785-1.776001,3.7440186-2.4319916,7.4800415-2.423996,10.9760132.0240021,9.8079834,9.3919983,17.2639771,19.6959991,23.8800049,11.7679901,7.5599976,30.9519806,16.1119995,40.3199921,20.4719849,13.9440002,6.4719849,29.7200012,6.632019,40.3680115-4.4559937.6000061-.632019,1.1919861-1.2960205,1.7600098-1.9920044,11.5439758-14.0719604,6.1839905-30.4160156,6.1839905-30.4160156ZM56.8240013,492.550415s31.920002-.7280273,44.1680031,0c31.7200012,1.8800049,54.5279999,16.0880127,87.776001,22.9680176,70.1279907,14.5279541,119.6239929,16.9519653,119.6239929,16.9519653"/>
</svg>